<svg id="visual" viewBox="0 0 900 600" width="900" height="600" xmlns="http://www.w3.org/2000/svg" xmlns:xlink="http://www.w3.org/1999/xlink" version="1.1"><path d="M0 115L82 103L164 73L245 109L327 55L409 73L491 61L573 85L655 121L736 43L818 73L900 127L900 0L818 0L736 0L655 0L573 0L491 0L409 0L327 0L245 0L164 0L82 0L0 0Z" fill="#1900cc"></path><path d="M0 247L82 187L164 157L245 229L327 151L409 127L491 205L573 181L655 235L736 205L818 229L900 241L900 125L818 71L736 41L655 119L573 83L491 59L409 71L327 53L245 107L164 71L82 101L0 113Z" fill="#0049d0"></path><path d="M0 331L82 277L164 439L245 421L327 349L409 319L491 397L573 385L655 349L736 379L818 343L900 367L900 239L818 227L736 203L655 233L573 179L491 203L409 125L327 149L245 227L164 155L82 185L0 245Z" fill="#006bc2"></path><path d="M0 379L82 379L164 493L245 475L327 445L409 409L491 433L573 463L655 427L736 439L818 397L900 427L900 365L818 341L736 377L655 347L573 383L491 395L409 317L327 347L245 419L164 437L82 275L0 329Z" fill="#007ea6"></path><path d="M0 601L82 601L164 601L245 601L327 601L409 601L491 601L573 601L655 601L736 601L818 601L900 601L900 425L818 395L736 437L655 425L573 461L491 431L409 407L327 443L245 473L164 491L82 377L0 377Z" fill="#038373"></path></svg>