<svg id="visual" viewBox="0 0 1600 1600" width="1600" height="1600" xmlns="http://www.w3.org/2000/svg" xmlns:xlink="http://www.w3.org/1999/xlink" version="1.1"><path d="M0 305L145 273L291 193L436 289L582 145L727 193L873 161L1018 225L1164 321L1309 113L1455 193L1600 337L1600 0L1455 0L1309 0L1164 0L1018 0L873 0L727 0L582 0L436 0L291 0L145 0L0 0Z" fill="#1900cc"></path><path d="M0 657L145 497L291 417L436 609L582 401L727 337L873 545L1018 481L1164 625L1309 545L1455 609L1600 641L1600 335L1455 191L1309 111L1164 319L1018 223L873 159L727 191L582 143L436 287L291 191L145 271L0 303Z" fill="#0049d0"></path><path d="M0 881L145 737L291 1169L436 1121L582 929L727 849L873 1057L1018 1025L1164 929L1309 1009L1455 913L1600 977L1600 639L1455 607L1309 543L1164 623L1018 479L873 543L727 335L582 399L436 607L291 415L145 495L0 655Z" fill="#006bc2"></path><path d="M0 1009L145 1009L291 1313L436 1265L582 1185L727 1089L873 1153L1018 1233L1164 1137L1309 1169L1455 1057L1600 1137L1600 975L1455 911L1309 1007L1164 927L1018 1023L873 1055L727 847L582 927L436 1119L291 1167L145 735L0 879Z" fill="#007ea6"></path><path d="M0 1601L145 1601L291 1601L436 1601L582 1601L727 1601L873 1601L1018 1601L1164 1601L1309 1601L1455 1601L1600 1601L1600 1135L1455 1055L1309 1167L1164 1135L1018 1231L873 1151L727 1087L582 1183L436 1263L291 1311L145 1007L0 1007Z" fill="#038373"></path></svg>